<svg xmlns="http://www.w3.org/2000/svg" height="13" width="13" xml:space="preserve" viewBox="0 0 1.6123047 1.6123047"><g id="g835" transform="matrix(0.02348363,0,0,0.02148404,0.06054719,0.12402324)"><path style="fill:#91979c" id="path833" data-old_color="#91979c" class="active-path" data-original="#000000" d="m 49.279,4.75 h -0.255 v -1 C 49.024,1.682 47.342,0 45.274,0 c -2.068,0 -3.75,1.682 -3.75,3.75 v 1 H 21.976 v -1 C 21.976,1.682 20.294,0 18.226,0 c -2.068,0 -3.75,1.682 -3.75,3.75 v 1 H 14.221 C 7.87,4.75 2.703,9.917 2.703,16.268 v 35.715 c 0,6.351 5.167,11.518 11.518,11.518 h 35.058 c 6.351,0 11.518,-5.167 11.518,-11.518 V 16.268 C 60.796,9.917 55.629,4.75 49.279,4.75 Z m -5.755,-1 c 0,-0.965 0.785,-1.75 1.75,-1.75 0.965,0 1.75,0.785 1.75,1.75 v 4 c 0,0.965 -0.785,1.75 -1.75,1.75 -0.965,0 -1.75,-0.785 -1.75,-1.75 z m -27.048,0 c 0,-0.965 0.785,-1.75 1.75,-1.75 0.965,0 1.75,0.785 1.75,1.75 v 4 c 0,0.965 -0.785,1.75 -1.75,1.75 -0.965,0 -1.75,-0.785 -1.75,-1.75 z m -2.255,3 h 0.255 v 1 c 0,2.068 1.682,3.75 3.75,3.75 2.068,0 3.75,-1.682 3.75,-3.75 v -1 h 19.548 v 1 c 0,2.068 1.682,3.75 3.75,3.75 2.068,0 3.75,-1.682 3.75,-3.75 v -1 h 0.255 c 5.248,0 9.518,4.27 9.518,9.518 V 18.75 H 4.704 V 16.268 C 4.704,11.02 8.973,6.75 14.221,6.75 Z M 49.279,61.5 H 14.221 C 8.973,61.5 4.703,57.23 4.703,51.982 V 20.75 h 54.093 v 31.232 c 0,5.248 -4.269,9.518 -9.517,9.518 z m 3.388,-29.667 c 0.552,0 1,-0.448 1,-1 0,-0.552 -0.448,-1 -1,-1 h -3.5 v -3 c 0,-0.552 -0.448,-1 -1,-1 -0.552,0 -1,0.448 -1,1 v 3 h -6.333 v -3 c 0,-0.552 -0.448,-1 -1,-1 -0.552,0 -1,0.448 -1,1 v 3 H 32.5 v -3 c 0,-0.552 -0.448,-1 -1,-1 -0.552,0 -1,0.448 -1,1 v 3 h -6.333 v -3 c 0,-0.552 -0.448,-1 -1,-1 -0.552,0 -1,0.448 -1,1 v 3 h -6.333 v -3 c 0,-0.552 -0.448,-1 -1,-1 -0.552,0 -1,0.448 -1,1 v 3 h -3.5 c -0.552,0 -1,0.448 -1,1 0,0.552 0.448,1 1,1 h 3.5 V 39.5 h -3.5 c -0.552,0 -1,0.448 -1,1 0,0.552 0.448,1 1,1 h 3.5 v 7.667 h -3.5 c -0.552,0 -1,0.448 -1,1 0,0.552 0.448,1 1,1 h 3.5 v 3 c 0,0.552 0.448,1 1,1 0.552,0 1,-0.448 1,-1 v -3 h 6.333 v 3 c 0,0.552 0.448,1 1,1 0.552,0 1,-0.448 1,-1 v -3 H 30.5 v 3 c 0,0.552 0.448,1 1,1 0.552,0 1,-0.448 1,-1 v -3 h 6.333 v 3 c 0,0.552 0.448,1 1,1 0.552,0 1,-0.448 1,-1 v -3 h 6.333 v 3 c 0,0.552 0.448,1 1,1 0.552,0 1,-0.448 1,-1 v -3 h 3.5 c 0.552,0 1,-0.448 1,-1 0,-0.552 -0.448,-1 -1,-1 h -3.5 V 41.5 h 3.5 c 0.552,0 1,-0.448 1,-1 0,-0.552 -0.448,-1 -1,-1 h -3.5 v -7.667 z m -13.834,0 V 39.5 H 32.5 v -7.667 z m -8.333,0 V 39.5 h -6.333 v -7.667 z m -14.667,0 h 6.333 V 39.5 h -6.333 z m 0,17.334 V 41.5 h 6.333 v 7.667 z m 8.334,0 V 41.5 H 30.5 v 7.667 z m 8.333,0 V 41.5 h 6.333 v 7.667 z m 14.667,0 H 40.834 V 41.5 h 6.333 z m 0,-9.667 h -6.333 v -7.667 h 6.333 z" /></g></svg>